<svg xmlns="http://www.w3.org/2000/svg" width="570.345" height="819.856" viewBox="0 0 570.345 819.856"><defs><style>.a{fill:#efefef;}</style></defs><g transform="translate(-3.189 0)"><path class="a" d="M25.769,524.989c-45.585,72.583-13.3,134.172,19.251,186.839,26.216,42.259,17.608,54.389-22.3,76.535,30.09,6.5,57.871,5.83,77.866,18.077,46.289,28.251,82.248,4.774,126.894-6.026,102.008-24.69,184.139-105.96,295.342-99.9,26.725,1.487,35.333-22.264,46.289-38.189,15.69-22.695-14.673-29.307-23.829-35.646-27.625-18.977-49.732-46.211-47.306-74.109,4.5-51.141-.783-101.773,2.035-152.445.861-16.121,22.225-29.151,7.239-47.659-44.372-54.31-17.138-122.394-33.729-182.848-8.334-30.168-1.37-62.488-33.377-84.048-14.125-9.547-28.6-19.095-19.525-46.446,13.147-39.246-14.869-47.111-44.1-31.851-25.551,13.265-50.358,13.108-77,12.834C230.255,19.448,161,22.109,91.9,19.6,53.55,18.275,38.368,41.282,47.955,68.359c29.033,81.9,8.8,170.522,39.285,251.87,7.043,18.743,12.873,49.38,3.091,61.08C54.294,424.272,52.689,482.143,25.769,524.989Z" transform="translate(0 0)"/></g></svg>